<?xml version="1.0" encoding="UTF-8" standalone="no"?> <!-- Created with Vectornator for iOS (http://vectornator.io/) --><!DOCTYPE svg PUBLIC "-//W3C//DTD SVG 1.1//EN" "http://www.w3.org/Graphics/SVG/1.1/DTD/svg11.dtd">
<svg width="100%" version="1.1" style="fill-rule:nonzero;clip-rule:evenodd;stroke-linecap:round;stroke-linejoin:round;" xml:space="preserve" height="100%" xmlns="http://www.w3.org/2000/svg" viewBox="0 0 1500 400" xmlns:vectornator="http://vectornator.io" xmlns:xlink="http://www.w3.org/1999/xlink">
<metadata>
<vectornator:setting value="false" key="WDDisplayWhiteBackground"/>
<vectornator:setting value="true" key="WDRulersVisible"/>
<vectornator:setting value="true" key="WDSnapToPoints"/>
<vectornator:setting value="false" key="WDDynamicGuides"/>
<vectornator:setting value="true" key="WDGuidesVisible"/>
<vectornator:setting key="WDIsolateActiveLayer" value="false"/>
<vectornator:setting key="WDOutlineMode" value="false"/>
<vectornator:setting key="WDSnapToGrid" value="true"/>
<vectornator:setting value="true" key="VNDimensionsVisible"/>
<vectornator:setting value="true" key="VNSnapToGuides"/>
<vectornator:setting value="Pixels" key="WDUnits"/>
<vectornator:setting key="WDCMYKEnabledKey" value="false"/>
<vectornator:setting key="IsTimeLapseWatermarkDisabled" value="false"/>
<vectornator:setting value="true" key="WDSnapToEdges"/>
<vectornator:setting value="true" key="UndoHistoryDisabled"/>
</metadata>
<defs>
<linearGradient id="LinearGradient" x1="151.859" y1="215.951" gradientUnits="userSpaceOnUse" gradientTransform="matrix(1 0 0 1 0 0)" x2="310.394" y2="215.951">
<stop stop-color="#2bff94" offset="0"/>
<stop offset="0.995868" stop-color="#3ac2ff"/>
</linearGradient>
<linearGradient gradientTransform="matrix(1 0 0 1 0 0)" y1="215.989" x2="211.812" x1="53.4244" id="LinearGradient_2" y2="215.989" gradientUnits="userSpaceOnUse">
<stop stop-color="#5849ff" offset="0"/>
<stop offset="0.995868" stop-color="#6907c4"/>
</linearGradient>
</defs>
<g vectornator:layerName="レイヤー 1" id="レイヤー 1">
<g opacity="1">
<path d="M532.512+268.367L451.313+268.367L433.535+323.461L385.008+323.461L465.246+92.3555L522.102+92.3555L602.34+323.461L549.969+323.461L532.512+268.367ZM461.723+231.051L522.262+231.051L493.594+140.402L490.711+140.402L461.723+231.051Z" opacity="1" fill="#000000"/>
<path opacity="1" fill="#000000" d="M637.094+146.809L682.258+146.809L682.258+175.156L685.141+175.156C689.198+165.12+695.631+157.245+704.44+151.533C713.248+145.821+724.219+142.965+737.352+142.965C756.998+142.965+771.972+148.73+782.276+160.262C792.579+171.793+797.731+188.129+797.731+209.27L797.731+323.461L751.125+323.461L751.125+220.32C751.125+208.042+748.483+198.779+743.198+192.533C737.912+186.287+729.718+183.164+718.614+183.164C713.168+183.164+708.31+184.072+704.039+185.887C699.768+187.702+696.112+190.291+693.069+193.654C690.026+197.018+687.703+201.075+686.102+205.826C684.5+210.577+683.699+215.836+683.699+221.602L683.699+323.461L637.094+323.461L637.094+146.809Z"/>
<path d="M838.891+198.699C838.891+190.371+840.653+182.764+844.176+175.877C847.699+168.99+852.691+163.118+859.151+158.26C865.61+153.402+873.351+149.638+882.373+146.969C891.395+144.299+901.405+142.965+912.403+142.965C934.931+142.965+952.548+147.476+965.254+156.498C977.96+165.52+984.953+178.52+986.235+195.496L943.153+195.496C941.978+189.73+938.775+185.219+933.543+181.963C928.311+178.706+921.371+177.078+912.723+177.078C908.559+177.078+904.715+177.532+901.192+178.439C897.668+179.347+894.599+180.628+891.983+182.283C889.367+183.938+887.338+185.913+885.897+188.209C884.455+190.505+883.735+193.04+883.735+195.816C883.735+200.194+885.657+203.771+889.5+206.547C893.344+209.323+899.377+211.618+907.598+213.434L940.75+220.641C949.292+222.563+956.686+224.911+962.932+227.688C969.178+230.464+974.33+233.827+978.387+237.777C982.444+241.728+985.461+246.266+987.436+251.391C989.411+256.516+990.399+262.388+990.399+269.008C990.399+277.87+988.504+285.878+984.713+293.031C980.923+300.185+975.611+306.298+968.778+311.369C961.944+316.441+953.75+320.365+944.194+323.141C934.638+325.917+924.094+327.305+912.563+327.305C900.925+327.305+890.461+326.13+881.172+323.781C871.883+321.432+863.929+318.016+857.309+313.531C850.689+309.047+845.431+303.521+841.533+296.955C837.636+290.389+835.314+282.835+834.567+274.293L880.051+274.293C881.866+280.379+885.55+285.05+891.102+288.307C896.654+291.563+904.128+293.191+913.524+293.191C918.008+293.191+922.145+292.738+925.936+291.83C929.726+290.923+932.956+289.641+935.625+287.986C938.295+286.331+940.377+284.356+941.871+282.061C943.366+279.765+944.114+277.176+944.114+274.293C944.114+269.915+942.352+266.365+938.828+263.643C935.305+260.92+929.646+258.704+921.852+256.996L889.821+249.789C872.63+246.052+859.845+240.02+851.463+231.691C843.082+223.363+838.891+212.366+838.891+198.699Z" opacity="1" fill="#000000"/>
<path d="M1029+146.809L1075.6+146.809L1075.6+323.461L1029+323.461L1029+146.809ZM1052.38+122.145C1048.22+122.145+1044.42+121.557+1041.01+120.383C1037.59+119.208+1034.68+117.58+1032.28+115.498C1029.88+113.416+1028.04+110.934+1026.75+108.051C1025.47+105.168+1024.83+102.018+1024.83+98.6016C1024.83+95.0781+1025.47+91.875+1026.75+88.9922C1028.04+86.1094+1029.88+83.627+1032.28+81.5449C1034.68+79.4629+1037.59+77.8613+1041.01+76.7402C1044.42+75.6191+1048.22+75.0586+1052.38+75.0586C1056.54+75.0586+1060.31+75.6191+1063.67+76.7402C1067.03+77.8613+1069.92+79.4629+1072.32+81.5449C1074.72+83.627+1076.59+86.1094+1077.92+88.9922C1079.26+91.875+1079.93+95.0781+1079.93+98.6016C1079.93+102.018+1079.26+105.168+1077.92+108.051C1076.59+110.934+1074.72+113.416+1072.32+115.498C1069.92+117.58+1067.03+119.208+1063.67+120.383C1060.31+121.557+1056.54+122.145+1052.38+122.145Z" opacity="1" fill="#000000"/>
<path fill="#000000" d="M1122.69+146.809L1167.85+146.809L1167.85+175.637L1170.73+175.637C1172.55+170.618+1175.03+166.081+1178.18+162.023C1181.33+157.966+1184.99+154.523+1189.15+151.693C1193.32+148.864+1197.99+146.702+1203.17+145.207C1208.34+143.712+1213.82+142.965+1219.58+142.965C1232.07+142.965+1242.46+145.821+1250.73+151.533C1259.01+157.245+1264.91+165.28+1268.43+175.637L1271.31+175.637C1273.34+170.725+1276.09+166.268+1279.56+162.264C1283.03+158.26+1287.06+154.816+1291.65+151.934C1296.24+149.051+1301.32+146.835+1306.87+145.287C1312.42+143.739+1318.29+142.965+1324.48+142.965C1333.24+142.965+1341.17+144.353+1348.27+147.129C1355.37+149.905+1361.37+153.855+1366.29+158.98C1371.2+164.105+1374.99+170.325+1377.66+177.639C1380.33+184.952+1381.66+193.147+1381.66+202.223L1381.66+323.461L1335.05+323.461L1335.05+214.555C1335.05+193.628+1325.23+183.164+1305.59+183.164C1300.89+183.164+1296.62+183.965+1292.77+185.566C1288.93+187.168+1285.65+189.383+1282.92+192.213C1280.2+195.042+1278.12+198.432+1276.68+202.383C1275.24+206.333+1274.52+210.658+1274.52+215.355L1274.52+323.461L1229.67+323.461L1229.67+212.633C1229.67+203.237+1227.11+195.977+1221.98+190.852C1216.86+185.727+1209.71+183.164+1200.52+183.164C1195.93+183.164+1191.74+184.018+1187.95+185.727C1184.16+187.435+1180.88+189.784+1178.1+192.773C1175.33+195.763+1173.16+199.34+1171.62+203.504C1170.07+207.668+1169.29+212.206+1169.29+217.117L1169.29+323.461L1122.69+323.461L1122.69+146.809Z" opacity="1"/>
</g>
<path d="M182.781+70.875C178.855+70.9158+178.861+70.9023+174.562+71.75C170.239+73.0691+170.222+73.0677+166.25+75.2188C162.633+77.6811+162.624+77.7089+159.844+80.4688C157.498+83.226+157.509+83.2079+155.906+85.7812C149.809+96.263+150.835+108.893+157.406+118.188C157.054+117.683+156.71+117.166+156.438+116.719C156.248+116.408+156.101+116.146+155.969+115.906C156.008+115.987+156.013+116.053+156.062+116.156C156.668+117.415+157.648+119.527+158.938+122.406C161.51+128.151+165.229+136.65+169.969+147.625C178.372+167.082+189.779+193.828+203.438+226.031C203.535+226.26+211.891+246.015+217.875+260.188L197.719+248.562C183.372+240.274+165.038+245.185+156.75+259.531C148.462+273.878+153.372+292.212+167.719+300.5L265.25+356.875C290.141+371.255+319.075+345.751+307.938+319.25C307.89+319.136+258.988+203.377+258.656+202.594C244.951+170.28+233.497+143.446+225.031+123.844C220.195+112.646+216.391+103.945+213.688+97.9062C212.193+94.569+211.018+91.9822+210.125+90.125C209.511+88.8473+208.99+87.8093+208.438+86.8125C207.757+85.5849+207.123+84.5436+206.125+83.1875C204.446+80.9065+202.712+78.9484+199.688+76.7188C197.537+75.2019+197.544+75.2131+194.094+73.4688C189.682+71.7011+189.677+71.6955+182.781+70.875ZM158.75+119.906C159.486+120.8+160.278+121.656+161.125+122.469C160.251+121.629+159.44+120.769+158.75+119.906ZM204+121.094C203.92+121.188+203.93+121.18+203.844+121.281C202.259+122.854+201.401+123.597+200.438+124.344C201.688+123.354+202.905+122.295+204+121.094ZM163.031+124.094C163.693+124.629+164.378+125.141+165.094+125.625C164.814+125.432+164.48+125.304+164.094+125.031C163.656+124.708+163.417+124.405+163.031+124.094ZM198.812+125.5C198.331+125.834+198.152+126.014+197.438+126.5C196.646+126.928+196.385+127.027+195.844+127.312C196.866+126.772+197.853+126.159+198.812+125.5ZM168.688+127.688C169.413+128.043+170.134+128.395+170.875+128.688C170.428+128.513+170.226+128.478+169.656+128.25C169.057+127.947+169.107+127.902+168.688+127.688ZM194.25+128.125C193.216+128.606+191.803+129.107+190.125+129.625C191.529+129.22+192.916+128.731+194.25+128.125ZM173.438+129.562C174.193+129.784+174.956+129.934+175.719+130.094C175.073+129.977+173.98+129.717+173.438+129.562ZM189.375+129.906C189.272+129.938+189.265+129.936+189.156+129.969C186.671+130.459+185.482+130.655+184.281+130.75C186.009+130.608+187.702+130.341+189.375+129.906ZM179.812+130.688C180.843+130.756+181.881+130.818+182.906+130.781C182.291+130.8+181.91+130.834+180.938+130.844C180.348+130.774+180.308+130.747+179.812+130.688Z" fill="url(#LinearGradient)" opacity="1"/>
<path opacity="1" fill="url(#LinearGradient_2)" d="M180.875+70.875C173.981+71.7013+173.973+71.6978+169.562+73.4688C166.115+75.2155+166.117+75.2006+163.969+76.7188C160.947+78.9501+159.239+80.9059+157.562+83.1875C156.565+84.544+155.898+85.6159+155.219+86.8438C154.667+87.8408+154.145+88.8782+153.531+90.1562C152.639+92.0141+151.461+94.5678+149.969+97.9062C147.269+103.947+143.486+112.642+138.656+123.844C130.202+143.453+118.748+170.331+105.062+202.656C104.731+203.44+55.9227+319.23+55.875+319.344C44.7529+345.854+73.6808+371.338+98.5625+356.938L196.094+300.469C210.434+292.169+215.331+273.84+207.031+259.5C198.732+245.16+180.371+240.263+166.031+248.562L145.906+260.219C151.884+246.035+160.215+226.261+160.312+226.031C173.952+193.817+185.359+167.089+193.75+147.625C198.483+136.647+202.181+128.122+204.75+122.375C206.037+119.494+207.02+117.385+207.625+116.125C207.74+115.886+207.818+115.706+207.875+115.594C207.863+115.618+207.826+115.682+207.719+115.875C207.586+116.114+207.439+116.376+207.25+116.688C206.978+117.135+206.633+117.652+206.281+118.156C212.846+108.858+213.854+96.2278+207.75+85.75C206.145+83.1772+206.161+83.1937+203.812+80.4375C201.029+77.679+201.026+77.6788+197.406+75.2188C193.432+73.0703+193.419+73.0657+189.094+71.75C184.794+70.9058+184.801+70.9125+180.875+70.875ZM205.062+119.719C204.305+120.679+203.42+121.631+202.438+122.562C203.381+121.667+204.255+120.714+205.062+119.719ZM159.719+121.094C160.849+122.332+162.079+123.455+163.375+124.469C162.354+123.689+161.517+122.909+159.875+121.281C159.789+121.18+159.799+121.188+159.719+121.094ZM200.875+123.938C200.438+124.296+200.132+124.626+199.625+125C199.17+125.321+198.752+125.472+198.438+125.688C199.278+125.125+200.109+124.569+200.875+123.938ZM164.719+125.406C165.717+126.102+166.745+126.716+167.812+127.281C167.281+127.002+167.018+126.915+166.25+126.5C165.459+125.962+165.231+125.763+164.719+125.406ZM195.281+127.531C194.799+127.78+194.817+127.868+194.062+128.25C193.393+128.519+193.13+128.554+192.625+128.75C193.524+128.401+194.404+127.973+195.281+127.531ZM169.531+128.156C170.738+128.699+171.985+129.153+173.25+129.531C171.847+129.095+170.46+128.584+169.531+128.156ZM190.344+129.562C189.766+129.73+188.602+130.001+187.906+130.125C188.721+129.956+189.537+129.802+190.344+129.562ZM174.375+129.906C175.959+130.313+177.585+130.573+179.219+130.719C178.085+130.619+176.93+130.434+174.562+129.969C174.468+129.94+174.465+129.934+174.375+129.906ZM183.906+130.688C183.41+130.748+183.371+130.773+182.781+130.844C181.917+130.836+181.603+130.795+181.031+130.781C181.99+130.808+182.944+130.753+183.906+130.688Z"/>
</g>
</svg>
