<?xml version="1.0" encoding="UTF-8" standalone="no"?> <!-- Created with Vectornator for iOS (http://vectornator.io/) --><!DOCTYPE svg PUBLIC "-//W3C//DTD SVG 1.1//EN" "http://www.w3.org/Graphics/SVG/1.1/DTD/svg11.dtd">
<svg version="1.1" xml:space="preserve" viewBox="0 0 1024 1024" height="100%" xmlns:vectornator="http://vectornator.io" xmlns="http://www.w3.org/2000/svg" width="100%" xmlns:xlink="http://www.w3.org/1999/xlink" style="fill-rule:nonzero;clip-rule:evenodd;stroke-linecap:round;stroke-linejoin:round;">
<metadata>
<vectornator:setting value="false" key="WDDisplayWhiteBackground"/>
<vectornator:setting value="false" key="WDSnapToGrid"/>
<vectornator:setting key="VNDimensionsVisible" value="true"/>
<vectornator:setting key="WDGuidesVisible" value="true"/>
<vectornator:setting key="WDSnapToEdges" value="false"/>
<vectornator:setting value="false" key="WDSnapToPoints"/>
<vectornator:setting key="UndoHistoryDisabled" value="true"/>
<vectornator:setting key="WDOutlineMode" value="false"/>
<vectornator:setting key="WDDynamicGuides" value="false"/>
<vectornator:setting key="WDIsolateActiveLayer" value="false"/>
<vectornator:setting value="false" key="IsTimeLapseWatermarkDisabled"/>
<vectornator:setting key="WDUnits" value="Pixels"/>
<vectornator:setting value="false" key="WDCMYKEnabledKey"/>
<vectornator:setting key="VNSnapToGuides" value="true"/>
<vectornator:setting key="WDRulersVisible" value="true"/>
</metadata>
<defs>
<linearGradient gradientTransform="matrix(3.4444 0 0 3.28591 -104.975 -210.956)" x2="310.394" y1="215.951" x1="151.859" id="LinearGradient" gradientUnits="userSpaceOnUse" y2="215.951">
<stop stop-color="#2bff94" offset="0"/>
<stop stop-color="#3ac2ff" offset="0.995868"/>
</linearGradient>
<linearGradient x1="53.4244" gradientTransform="matrix(3.4444 0 0 3.28591 -104.975 -210.956)" y1="215.989" y2="215.989" gradientUnits="userSpaceOnUse" x2="211.812" id="LinearGradient_2">
<stop stop-color="#5849ff" offset="0"/>
<stop stop-color="#6907c4" offset="0.995868"/>
</linearGradient>
</defs>
<g vectornator:layerName="レイヤー 1" id="レイヤー 1">
<path fill="url(#LinearGradient)" d="M524.596+21.9328C511.073+22.0668+511.094+22.0224+496.288+24.8079C481.397+29.1424+481.338+29.1376+467.656+36.2059C455.197+44.2969+455.168+44.3883+445.591+53.457C437.51+62.517+437.548+62.4577+432.028+70.9134C411.027+105.356+414.561+146.858+437.195+177.397C435.982+175.741+434.796+174.041+433.858+172.571C433.205+171.549+432.701+170.688+432.244+169.901C432.38+170.167+432.395+170.383+432.566+170.723C434.652+174.86+438.029+181.798+442.469+191.26C451.328+210.137+464.14+238.065+480.465+274.126C509.408+338.061+548.7+425.946+595.745+531.762C596.08+532.515+624.863+597.428+645.473+643.997L576.047+605.798C526.632+578.564+463.482+594.699+434.934+641.84C406.387+688.982+423.3+749.226+472.715+776.46L808.652+961.703C894.386+1008.95+994.048+925.15+955.685+838.071C955.52+837.697+787.084+457.321+785.94+454.749C738.734+348.569+699.282+260.395+670.122+195.983C653.465+159.188+640.362+130.596+631.05+110.755C625.903+99.789+621.856+91.2891+618.779+85.1866C616.663+80.9882+614.87+77.5774+612.967+74.302C610.623+70.2681+608.44+66.8467+605.002+62.3905C599.219+54.8953+593.246+48.4612+582.828+41.1348C575.422+36.1506+575.444+36.1873+563.561+30.4556C548.364+24.6471+548.348+24.6289+524.596+21.9328ZM441.823+183.045C444.357+185.982+447.087+188.796+450.004+191.465C446.993+188.708+444.2+185.879+441.823+183.045ZM597.682+186.947C597.406+187.257+597.441+187.23+597.144+187.563C591.687+192.73+588.729+195.172+585.412+197.626C589.719+194.374+593.911+190.894+597.682+186.947ZM456.57+196.805C458.848+198.564+461.208+200.244+463.674+201.836C462.71+201.201+461.561+200.781+460.229+199.885C458.721+198.825+457.898+197.827+456.57+196.805ZM579.815+201.426C578.157+202.524+577.538+203.114+575.078+204.712C572.353+206.119+571.454+206.445+569.589+207.381C573.109+205.607+576.511+203.592+579.815+201.426ZM476.052+208.614C478.551+209.783+481.035+210.939+483.587+211.899C482.048+211.325+481.351+211.212+479.389+210.462C477.325+209.467+477.498+209.318+476.052+208.614ZM564.099+210.051C560.538+211.631+555.672+213.278+549.891+214.98C554.728+213.649+559.504+212.043+564.099+210.051ZM492.413+214.775C495.015+215.502+497.642+215.996+500.27+216.52C498.047+216.138+494.283+215.283+492.413+214.775ZM547.308+215.904C546.952+216.008+546.929+216.001+546.555+216.11C537.994+217.72+533.9+218.365+529.763+218.677C535.714+218.209+541.546+217.333+547.308+215.904ZM514.371+218.471C517.919+218.698+521.494+218.902+525.027+218.779C522.907+218.841+521.596+218.952+518.246+218.985C516.214+218.754+516.079+218.668+514.371+218.471Z" opacity="1"/>
<path opacity="1" fill="url(#LinearGradient_2)" d="M518.031+21.9328C494.283+24.6478+494.256+24.6364+479.066+30.4556C467.191+36.1951+467.2+36.1464+459.799+41.1348C449.39+48.4669+443.509+54.8933+437.733+62.3905C434.299+66.8479+432.001+70.3701+429.66+74.4047C427.76+77.681+425.962+81.0897+423.848+85.2892C420.775+91.3939+416.717+99.7853+411.577+110.755C402.278+130.603+389.247+159.175+372.612+195.983C343.494+260.418+304.042+348.738+256.902+454.954C255.759+457.53+87.6452+838.005+87.4808+838.379C49.1718+925.488+148.811+1009.23+234.514+961.909L570.45+776.357C619.843+749.086+636.71+688.858+608.123+641.738C579.536+594.618+516.295+578.526+466.903+605.798L397.584+644.099C418.175+597.492+446.87+532.517+447.205+531.762C494.184+425.909+533.474+338.083+562.377+274.126C578.68+238.053+591.418+210.041+600.266+191.157C604.7+181.692+608.085+174.759+610.168+170.62C610.563+169.835+610.834+169.244+611.029+168.875C610.987+168.955+610.859+169.164+610.491+169.799C610.035+170.586+609.529+171.446+608.877+172.469C607.94+173.939+606.751+175.638+605.54+177.295C628.152+146.741+631.624+105.24+610.599+70.8107C605.072+62.3567+605.125+62.4111+597.037+53.3543C587.45+44.29+587.44+44.2896+574.971+36.2059C561.28+29.1465+561.236+29.1313+546.339+24.8079C531.53+22.034+531.554+22.0559+518.031+21.9328ZM601.342+182.429C598.732+185.584+595.685+188.712+592.3+191.773C595.55+188.83+598.562+185.699+601.342+182.429ZM445.16+186.947C449.055+191.017+453.291+194.707+457.754+198.037C454.238+195.476+451.355+192.911+445.698+187.563C445.401+187.231+445.436+187.256+445.16+186.947ZM586.919+196.291C585.412+197.47+584.358+198.554+582.613+199.783C581.047+200.838+579.607+201.333+578.523+202.042C581.418+200.195+584.28+198.366+586.919+196.291ZM462.382+201.118C465.821+203.403+469.361+205.421+473.038+207.279C471.209+206.36+470.303+206.076+467.656+204.712C464.932+202.945+464.145+202.29+462.382+201.118ZM567.651+208.1C565.991+208.917+566.052+209.206+563.454+210.462C561.149+211.345+560.243+211.46+558.502+212.105C561.599+210.959+564.632+209.553+567.651+208.1ZM478.958+210.154C483.116+211.937+487.41+213.428+491.767+214.672C486.934+213.237+482.157+211.559+478.958+210.154ZM550.645+214.775C548.654+215.324+544.644+216.215+542.249+216.623C545.057+216.068+547.868+215.561+550.645+214.775ZM495.642+215.904C501.098+217.242+506.7+218.097+512.326+218.574C508.421+218.246+504.443+217.637+496.288+216.11C495.962+216.015+495.954+215.995+495.642+215.904ZM528.471+218.471C526.764+218.669+526.628+218.752+524.596+218.985C521.619+218.958+520.537+218.826+518.569+218.779C521.872+218.868+525.157+218.687+528.471+218.471Z"/>
</g>
</svg>
